<svg id="Layer_1" data-name="Layer 1" xmlns="http://www.w3.org/2000/svg" xmlns:xlink="http://www.w3.org/1999/xlink" viewBox="0 0 512 512"><defs><style>.cls-1{fill:#fff;}.cls-2{fill:url(#linear-gradient);}.cls-3{fill:url(#linear-gradient-2);}.cls-4{fill:url(#linear-gradient-3);}.cls-5{fill:url(#linear-gradient-4);}</style><linearGradient id="linear-gradient" x1="371.2" y1="108.8" x2="371.2" y2="19.19" gradientUnits="userSpaceOnUse"><stop offset="0" stop-color="#f2a4ba"/><stop offset="1" stop-color="#ffdce7"/></linearGradient><linearGradient id="linear-gradient-2" x1="256" y1="492.8" x2="256" y2="352" xlink:href="#linear-gradient"/><linearGradient id="linear-gradient-3" x1="300.8" y1="67.61" x2="441.6" y2="67.61" gradientUnits="userSpaceOnUse"><stop offset="0.16" stop-color="#f96992"/><stop offset="1" stop-color="#f96992"/></linearGradient><linearGradient id="linear-gradient-4" x1="46.99" y1="336" x2="465.01" y2="336" xlink:href="#linear-gradient-3"/></defs><title>house-filled</title><polygon class="cls-1" points="403.2 492.8 108.8 492.8 108.8 268.8 256 198.4 403.2 268.8 403.2 492.8"/><path class="cls-2" d="M413.69,68.65a28.43,28.43,0,0,0,0-41,30.29,30.29,0,0,0-42.06,0l-.42.41-.42-.41a30.31,30.31,0,0,0-42.06,0,28.41,28.41,0,0,0,0,41L371.2,108.8Z"/><rect class="cls-3" x="211.2" y="352" width="89.6" height="140.8"/><polygon class="cls-1" points="339.2 179.2 339.2 238.19 403.2 268.8 403.2 179.2 339.2 179.2"/><path class="cls-4" d="M371.21,135.21,427.09,82.4a47.64,47.64,0,0,0,0-68.46,49.75,49.75,0,0,0-55.85-9.07,49.64,49.64,0,0,0-55.91,9.05,47.62,47.62,0,0,0,.2,68.68ZM342.13,41.43a10.84,10.84,0,0,1,7.63-3,11.27,11.27,0,0,1,8.08,3.48l13.82,12.59,13.37-13a11.15,11.15,0,0,1,15.29,0,9.23,9.23,0,0,1,.06,13.36L371.21,82.38,342.11,54.89a9.23,9.23,0,0,1,0-13.47Z"/><path class="cls-5" d="M465,277.08,422.4,256.7V160H320v47.73l-64-30.61L124.48,240l-24,11.46h0L47,277.08l16.56,34.64,26-12.46V492.8A19.2,19.2,0,0,0,108.8,512H403.2a19.2,19.2,0,0,0,19.2-19.2V299.26l26,12.46ZM358.4,198.4H384v39.93l-25.6-12.24Zm-128,275.2V371.2h51.2V473.6Zm153.6,0H320V332.8H192V473.6H128V280.9l128-61.22L384,280.9Z"/></svg>